<?xml version="1.0" encoding="utf-8"?>
<!-- Generator: Adobe Illustrator 18.0.0, SVG Export Plug-In . SVG Version: 6.00 Build 0)  -->
<!DOCTYPE svg PUBLIC "-//W3C//DTD SVG 1.1//EN" "http://www.w3.org/Graphics/SVG/1.1/DTD/svg11.dtd">
<svg version="1.1" id="レイヤー_1" xmlns="http://www.w3.org/2000/svg" xmlns:xlink="http://www.w3.org/1999/xlink" x="0px"
	 y="0px" viewBox="0 0 221 43.3" enable-background="new 0 0 221 43.3" xml:space="preserve">
<g>
	
		<text transform="matrix(1 0 0 1 45.646 34.8066)" fill="#FF7300" font-family="'ArialRoundedMTBold'" font-size="40.2853" letter-spacing="2">kanaeru</text>
	<g>
		<g>
			<linearGradient id="SVGID_1_" gradientUnits="userSpaceOnUse" x1="0.859" y1="36.2931" x2="31.2125" y2="6.671">
				<stop  offset="0" style="stop-color:#FF7300"/>
				<stop  offset="1" style="stop-color:#FFB000"/>
			</linearGradient>
			<path fill="url(#SVGID_1_)" d="M32,5.9c0-0.5-0.3-0.5-0.7-0.5h-6.7c-0.5,0-0.6,0.1-0.6,0.5v6c0,0.5-0.6,0.4-1,0.4h-8.8
				c-0.5,0-1.1,0.8-1.1,1.3v8.6c0,0.5-0.1,1.2-0.5,1.2H1.1c-0.5,0-1.1,0-1.1,0.5v12.2c0,0.5,0.7,1.3,1.1,1.3h12.2
				c0.5,0,0.7-0.8,0.7-1.3V24.7c0-0.5,0.5-0.4,1-0.4h8.6c0.5,0,0.4-0.8,0.4-1.3v-8.8c0-0.5,0.8-0.9,1.2-0.9h6c0.5,0,0.7-0.3,0.7-0.8
				V5.9z"/>
		</g>
		<g>
			<linearGradient id="SVGID_2_" gradientUnits="userSpaceOnUse" x1="19.8704" y1="35.9153" x2="37.356" y2="20.9534">
				<stop  offset="0" style="stop-color:#FF7300"/>
				<stop  offset="1" style="stop-color:#FFB000"/>
			</linearGradient>
			<path fill="url(#SVGID_2_)" d="M38,19.1c0-0.5-0.2-0.7-0.6-0.7h-6.7c-0.5,0-0.7,0.2-0.7,0.7V25c0,0.5-0.5,0.4-1,0.4h-8.6
				c-0.5,0-0.4,0.8-0.4,1.3v9.4c0,0.5-0.1,1.3,0.4,1.3h9.4c0.5,0,1.2-0.8,1.2-1.3v-8.7c0-0.5,0-1,0.5-1h5.9c0.5,0,0.6-0.2,0.6-0.6
				V19.1z"/>
		</g>
	</g>
</g>
</svg>
